<mxfile host="app.diagrams.net" modified="2024-03-06T08:20:12.546Z" agent="Mozilla/5.0 (Macintosh; Intel Mac OS X 10_15_7) AppleWebKit/537.36 (KHTML, like Gecko) Chrome/120.0.0.0 Safari/537.36" etag="Ak6WPn62wFqtXIppIUNn" version="23.1.7" type="github">
  <diagram name="페이지-1" id="pZyoLkYU4llX_7tRVOSn">
    <mxGraphModel dx="2069" dy="786" grid="1" gridSize="10" guides="1" tooltips="1" connect="1" arrows="1" fold="1" page="1" pageScale="1" pageWidth="827" pageHeight="1169" math="0" shadow="0">
      <root>
        <mxCell id="0" />
        <mxCell id="1" parent="0" />
        <mxCell id="wUL2A9BySkg_ptCFgsjO-2" value="Evergreen Server" style="rounded=1;whiteSpace=wrap;html=1;" vertex="1" parent="1">
          <mxGeometry x="240" y="360" width="600" height="40" as="geometry" />
        </mxCell>
        <mxCell id="wUL2A9BySkg_ptCFgsjO-3" value="" style="endArrow=classic;html=1;rounded=0;" edge="1" parent="1">
          <mxGeometry width="50" height="50" relative="1" as="geometry">
            <mxPoint x="360" y="80" as="sourcePoint" />
            <mxPoint x="360" y="140" as="targetPoint" />
          </mxGeometry>
        </mxCell>
        <mxCell id="wUL2A9BySkg_ptCFgsjO-4" value="US -&amp;gt; AU" style="text;html=1;align=center;verticalAlign=middle;whiteSpace=wrap;rounded=0;" vertex="1" parent="1">
          <mxGeometry x="330" y="30" width="60" height="30" as="geometry" />
        </mxCell>
        <mxCell id="wUL2A9BySkg_ptCFgsjO-7" value="Database (US)" style="rounded=1;whiteSpace=wrap;html=1;" vertex="1" parent="1">
          <mxGeometry y="160" width="200" height="40" as="geometry" />
        </mxCell>
        <mxCell id="wUL2A9BySkg_ptCFgsjO-9" value="" style="endArrow=classic;html=1;rounded=0;strokeColor=#0000FF;" edge="1" parent="1">
          <mxGeometry width="50" height="50" relative="1" as="geometry">
            <mxPoint x="979.5" y="510" as="sourcePoint" />
            <mxPoint x="980" y="310" as="targetPoint" />
          </mxGeometry>
        </mxCell>
        <mxCell id="wUL2A9BySkg_ptCFgsjO-10" value="Database" style="rounded=1;whiteSpace=wrap;html=1;" vertex="1" parent="1">
          <mxGeometry x="240" y="460" width="600" height="40" as="geometry" />
        </mxCell>
        <mxCell id="wUL2A9BySkg_ptCFgsjO-11" value="TESLA Worker" style="rounded=1;whiteSpace=wrap;html=1;" vertex="1" parent="1">
          <mxGeometry y="260" width="200" height="40" as="geometry" />
        </mxCell>
        <mxCell id="wUL2A9BySkg_ptCFgsjO-12" value="S3" style="rounded=1;whiteSpace=wrap;html=1;" vertex="1" parent="1">
          <mxGeometry y="520" width="1080" height="40" as="geometry" />
        </mxCell>
        <mxCell id="wUL2A9BySkg_ptCFgsjO-13" value="" style="endArrow=classic;html=1;rounded=0;strokeColor=#FF0000;" edge="1" parent="1">
          <mxGeometry width="50" height="50" relative="1" as="geometry">
            <mxPoint x="250" y="210" as="sourcePoint" />
            <mxPoint x="210" y="260" as="targetPoint" />
          </mxGeometry>
        </mxCell>
        <mxCell id="wUL2A9BySkg_ptCFgsjO-16" value="" style="endArrow=classic;html=1;rounded=0;strokeColor=#FF0000;" edge="1" parent="1">
          <mxGeometry width="50" height="50" relative="1" as="geometry">
            <mxPoint x="99.5" y="210" as="sourcePoint" />
            <mxPoint x="99.5" y="250" as="targetPoint" />
          </mxGeometry>
        </mxCell>
        <mxCell id="wUL2A9BySkg_ptCFgsjO-17" value="" style="endArrow=classic;html=1;rounded=0;strokeColor=#FF0000;" edge="1" parent="1">
          <mxGeometry width="50" height="50" relative="1" as="geometry">
            <mxPoint x="99.5" y="310" as="sourcePoint" />
            <mxPoint x="100" y="510" as="targetPoint" />
          </mxGeometry>
        </mxCell>
        <mxCell id="wUL2A9BySkg_ptCFgsjO-18" value="" style="endArrow=classic;html=1;rounded=0;strokeColor=#FF0000;" edge="1" parent="1">
          <mxGeometry width="50" height="50" relative="1" as="geometry">
            <mxPoint x="380" y="210" as="sourcePoint" />
            <mxPoint x="380.5" y="350" as="targetPoint" />
          </mxGeometry>
        </mxCell>
        <mxCell id="wUL2A9BySkg_ptCFgsjO-20" value="" style="endArrow=classic;html=1;rounded=0;endFill=1;startArrow=classic;startFill=1;" edge="1" parent="1">
          <mxGeometry width="50" height="50" relative="1" as="geometry">
            <mxPoint x="539.5" y="410" as="sourcePoint" />
            <mxPoint x="539.5" y="450" as="targetPoint" />
          </mxGeometry>
        </mxCell>
        <mxCell id="wUL2A9BySkg_ptCFgsjO-21" value="" style="endArrow=classic;html=1;rounded=0;strokeColor=#0000FF;" edge="1" parent="1">
          <mxGeometry width="50" height="50" relative="1" as="geometry">
            <mxPoint x="680" y="350" as="sourcePoint" />
            <mxPoint x="679.5" y="210" as="targetPoint" />
          </mxGeometry>
        </mxCell>
        <mxCell id="wUL2A9BySkg_ptCFgsjO-23" value="- Evergreen에서 모든 migration을 제어해야되기 때문에, migration 시작 이벤트와 종료 이벤트를 migration에서 처리해야함&lt;br&gt;&lt;br&gt;- TESLA에서 Evergreen Server를 호출할때, DB 정보를 주면 좋지만 성능문제 및 용량때문에 Background에서 작업" style="text;html=1;align=left;verticalAlign=middle;whiteSpace=wrap;rounded=0;" vertex="1" parent="1">
          <mxGeometry x="740" y="610" width="360" height="30" as="geometry" />
        </mxCell>
        <mxCell id="wUL2A9BySkg_ptCFgsjO-24" value="TESLA Worker" style="rounded=1;whiteSpace=wrap;html=1;" vertex="1" parent="1">
          <mxGeometry x="880" y="260" width="200" height="40" as="geometry" />
        </mxCell>
        <mxCell id="wUL2A9BySkg_ptCFgsjO-25" value="TESLA Server" style="rounded=1;whiteSpace=wrap;html=1;" vertex="1" parent="1">
          <mxGeometry x="260" y="160" width="200" height="40" as="geometry" />
        </mxCell>
        <mxCell id="wUL2A9BySkg_ptCFgsjO-26" value="TESLA Server" style="rounded=1;whiteSpace=wrap;html=1;" vertex="1" parent="1">
          <mxGeometry x="620" y="160" width="200" height="40" as="geometry" />
        </mxCell>
        <mxCell id="wUL2A9BySkg_ptCFgsjO-27" value="Database (US)" style="rounded=1;whiteSpace=wrap;html=1;" vertex="1" parent="1">
          <mxGeometry x="880" y="160" width="200" height="40" as="geometry" />
        </mxCell>
        <mxCell id="wUL2A9BySkg_ptCFgsjO-28" value="" style="endArrow=classic;html=1;rounded=0;strokeColor=#FF0000;" edge="1" parent="1">
          <mxGeometry width="50" height="50" relative="1" as="geometry">
            <mxPoint x="340.5" y="350" as="sourcePoint" />
            <mxPoint x="340" y="210" as="targetPoint" />
          </mxGeometry>
        </mxCell>
        <mxCell id="wUL2A9BySkg_ptCFgsjO-29" value="" style="endArrow=classic;html=1;rounded=0;strokeColor=#0000FF;" edge="1" parent="1">
          <mxGeometry width="50" height="50" relative="1" as="geometry">
            <mxPoint x="830" y="210" as="sourcePoint" />
            <mxPoint x="870" y="260" as="targetPoint" />
          </mxGeometry>
        </mxCell>
        <mxCell id="wUL2A9BySkg_ptCFgsjO-30" value="" style="endArrow=classic;html=1;rounded=0;strokeColor=#0000FF;" edge="1" parent="1">
          <mxGeometry width="50" height="50" relative="1" as="geometry">
            <mxPoint x="979.5" y="250" as="sourcePoint" />
            <mxPoint x="979.5" y="210" as="targetPoint" />
          </mxGeometry>
        </mxCell>
        <mxCell id="wUL2A9BySkg_ptCFgsjO-34" value="" style="rounded=0;whiteSpace=wrap;html=1;fillColor=#d5e8d4;strokeColor=#82b366;opacity=30;" vertex="1" parent="1">
          <mxGeometry x="-20" y="140" width="500" height="180" as="geometry" />
        </mxCell>
        <mxCell id="wUL2A9BySkg_ptCFgsjO-35" value="" style="rounded=0;whiteSpace=wrap;html=1;fillColor=#ffe6cc;strokeColor=#d79b00;opacity=30;" vertex="1" parent="1">
          <mxGeometry x="600" y="140" width="500" height="180" as="geometry" />
        </mxCell>
        <mxCell id="wUL2A9BySkg_ptCFgsjO-36" value="" style="endArrow=none;html=1;rounded=0;strokeColor=#FF0000;endFill=0;strokeWidth=3;" edge="1" parent="1">
          <mxGeometry width="50" height="50" relative="1" as="geometry">
            <mxPoint x="-20" y="65" as="sourcePoint" />
            <mxPoint x="40" y="65" as="targetPoint" />
          </mxGeometry>
        </mxCell>
        <mxCell id="wUL2A9BySkg_ptCFgsjO-37" value="" style="endArrow=none;html=1;rounded=0;strokeColor=#0000FF;endFill=0;strokeWidth=3;" edge="1" parent="1">
          <mxGeometry width="50" height="50" relative="1" as="geometry">
            <mxPoint x="-20" y="95" as="sourcePoint" />
            <mxPoint x="40" y="95" as="targetPoint" />
          </mxGeometry>
        </mxCell>
        <mxCell id="wUL2A9BySkg_ptCFgsjO-38" value="Export" style="text;html=1;align=center;verticalAlign=middle;whiteSpace=wrap;rounded=0;" vertex="1" parent="1">
          <mxGeometry x="34" y="50" width="60" height="30" as="geometry" />
        </mxCell>
        <mxCell id="wUL2A9BySkg_ptCFgsjO-40" value="Import" style="text;html=1;align=center;verticalAlign=middle;whiteSpace=wrap;rounded=0;" vertex="1" parent="1">
          <mxGeometry x="34" y="80" width="60" height="30" as="geometry" />
        </mxCell>
        <mxCell id="wUL2A9BySkg_ptCFgsjO-41" value="Region US" style="text;html=1;align=center;verticalAlign=middle;whiteSpace=wrap;rounded=0;" vertex="1" parent="1">
          <mxGeometry x="400" y="290" width="80" height="30" as="geometry" />
        </mxCell>
        <mxCell id="wUL2A9BySkg_ptCFgsjO-43" value="Region AU" style="text;html=1;align=center;verticalAlign=middle;whiteSpace=wrap;rounded=0;" vertex="1" parent="1">
          <mxGeometry x="600" y="290" width="80" height="30" as="geometry" />
        </mxCell>
      </root>
    </mxGraphModel>
  </diagram>
</mxfile>
